<svg width="256" height="256" version="1.1" viewBox="0 0 300 300" xmlns="http://www.w3.org/2000/svg">
				<g transform="matrix(.99585 0 0 .99585 .62078 .62353)" style="stroke-width:1.0042">
								<g transform="matrix(.79107 0 0 .79107 -379.26 -189.4)" style="fill:#282828;paint-order:stroke fill markers;stroke-linecap:square;stroke-linejoin:round;stroke-width:4.4626;stroke:#f00">
												<path d="m531.27 266.49c-18.24 0-24.775 6.5634-24.775 24.775-2.7972 0-17.438-1.6276-14.991 4.3366 1.5539 3.7891 11.675 2.0864 14.991 2.0864v7.3409h-15.599c0.28666 8.7296 8.9244 6.423 15.599 6.423v6.4229h-15.599c0.28668 8.6209 9.0411 6.4229 15.599 6.4229v6.4229c-3.6404 0-11.14-1.425-14.127 0.94235-7.9785 6.3216 11.963 6.3985 14.127 6.3985v6.4229h-15.599v5.5055h15.599v7.3409c-6.6746 0-15.313-2.3064-15.599 6.4229 6.4474 0 14.957-1.9998 15.599 6.423-6.5579 0-15.313-2.1978-15.599 6.4229 6.4474 0 14.957-1.9999 15.599 6.4229-2.1649 0-22.106 0.0767-14.127 6.3985 2.988 2.3673 10.486 0.94233 14.127 0.94233-0.3013 9.2518-8.4634 7.3409-15.599 7.3409v5.5055h15.599v7.3408h-15.599c0.28666 8.7296 8.9244 6.423 15.599 6.423v6.4229h-15.599c0.28666 8.7296 8.9244 6.423 15.599 6.423v6.4229h-15.599v6.423h15.599v7.3408h-15.599v5.5055c7.1357 0 15.298-1.9116 15.599 7.3409-6.6746 0-15.313-2.3064-15.599 6.4229l15.599 0.9176v5.5055c-6.5579 0-15.313-2.1978-15.599 6.4229h15.599v7.3409h-15.599c0.28666 8.7296 8.9244 6.423 15.599 6.423v7.3408h-15.599c0.60794 7.8026 9.6604 5.5055 15.599 5.5055 0 18.486 6.2886 24.775 24.775 24.775 0 2.7972-1.6276 17.438 4.3366 14.991 3.789-1.5539 2.0865-11.675 2.0865-14.991 9.2518 0.30131 7.3409 8.4634 7.3409 15.599 8.7296-0.28665 6.4229-8.9244 6.4229-15.599h6.4229v15.599c8.7296-0.28665 6.423-8.9244 6.423-15.599h6.4229c0 3.6404-1.4249 11.14 0.94234 14.127 6.3216 7.9784 6.3985-11.963 6.3985-14.127h6.4229v15.599h5.5055v-15.599h7.3408c0 3.6404-1.4249 11.14 0.94236 14.127 6.3216 7.9784 6.3985-11.963 6.3985-14.127h6.4229v15.599c8.6209-0.28668 6.423-9.0411 6.423-15.599h6.4229v15.599c8.7296-0.28665 6.423-8.9244 6.423-15.599h6.4229c0 2.9095-1.7644 17.416 4.3139 14.991 3.8146-1.5216 2.1092-11.679 2.1092-14.991h7.3408c0 2.9095-1.7644 17.416 4.314 14.991 3.8146-1.5217 2.1092-11.679 2.1092-14.991h6.423v15.599h6.4229v-15.599h6.4229c0 2.1648 0.0767 22.106 6.3985 14.127 2.3674-2.988 0.94236-10.486 0.94236-14.127h6.4229v15.599c8.6209-0.28668 6.423-9.0411 6.423-15.599h6.4229c0 2.1648 0.077 22.106 6.3985 14.127 2.3674-2.988 0.94237-10.486 0.94237-14.127 8.423 0.64261 6.4229 9.1516 6.4229 15.599 8.6209-0.28668 6.423-9.0411 6.423-15.599h6.4229v15.599h6.423v-15.599h7.3408v15.599c7.8026-0.60793 5.5055-9.6604 5.5055-15.599 18.486 0 24.775-6.2886 24.775-24.775 5.9389 0 14.991 2.2972 15.599-5.5055-7.1356 0-15.298 1.9116-15.599-7.3408 6.6746 0 15.313 2.3064 15.599-6.423-7.1356 0-15.298 1.9116-15.599-7.3409h15.599c-0.28665-8.6209-9.0417-6.4229-15.599-6.4229v-5.5055l15.599-0.9176c-0.28655-8.7296-8.9244-6.4229-15.599-6.4229 0.30124-9.2518 8.4633-7.3409 15.599-7.3409v-5.5055h-15.599v-7.3408h15.599c-0.28655-8.7296-8.9244-6.423-15.599-6.423v-6.4229c6.6746 0 15.313 2.3064 15.599-6.423h-15.599v-6.4229c6.6746 0 15.313 2.3064 15.599-6.423h-15.599v-7.3408h15.599v-5.5055c-7.1356 0-15.298 1.9116-15.599-7.3409 3.6404 0 11.14 1.4249 14.127-0.94233 7.9784-6.3216-11.963-6.3985-14.127-6.3985 0.64246-8.423 9.1516-6.4229 15.599-6.4229-0.28655-8.7296-8.9244-6.4229-15.599-6.4229 0.64259-8.4231 9.1516-6.423 15.599-6.423v-6.4229h-15.599v-7.3409h15.599v-5.5055h-15.599v-6.4229c2.1647 0 22.106-0.0771 14.127-6.3985-2.988-2.3674-10.486-0.94235-14.127-0.94235v-6.4229c6.6746 0 15.313 2.3064 15.599-6.4229-6.4474 0-14.957 1.9998-15.599-6.4229 6.6746 0 15.313 2.3064 15.599-6.423-7.1356 0-15.298 1.9116-15.599-7.3409 2.9095 0 17.416 1.7644 14.991-4.3139-1.5217-3.8146-11.679-2.1092-14.991-2.1092 0-18.218-6.4413-24.775-24.775-24.775v-15.599c-7.8026 0.60791-5.5055 9.6604-5.5055 15.599h-7.3408c0-2.9095 1.7644-17.417-4.314-14.991-3.8146 1.5217-2.1092 11.679-2.1092 14.991h-6.4229c0-6.6746 2.3064-15.313-6.423-15.599v15.599h-6.4229c0-3.596 1.5526-12.144-1.5951-14.652-6.8474-5.4551-5.7455 12.046-5.7455 14.652h-6.4229c0-2.7971 1.6276-17.438-4.3366-14.991-3.7891 1.5539-2.0865 11.675-2.0865 14.991h-6.4229c0-2.1648-0.0769-22.106-6.3985-14.127-2.3672 2.9878-0.94232 10.486-0.94232 14.127h-6.423c0-3.3122 1.7055-13.47-2.1092-14.991-6.0784-2.4247-4.3139 12.082-4.3139 14.991h-6.423c0-6.6746 2.3064-15.313-6.4229-15.599v15.599h-7.3408c0-3.3122 1.7054-13.47-2.1092-14.991-6.0784-2.4247-4.314 12.082-4.314 14.991h-6.4229c0-3.3122 1.7054-13.47-2.1092-14.991-6.0784-2.4247-4.314 12.082-4.314 14.991h-6.423c0-6.5579 2.1978-15.313-6.4229-15.599v15.599h-6.4229c0-2.6541 1.038-19.691-5.8702-14.638-3.0623 2.2398-1.4705 11.253-1.4705 14.638h-7.3408c0-2.8517 1.6823-15.015-2.7528-15.015-4.435 0-2.7528 12.164-2.7528 15.015h-6.4229c0-3.596 1.5526-12.144-1.5951-14.652-6.8474-5.4551-5.7456 12.046-5.7456 14.652h-6.4229c0-6.5579 2.1978-15.313-6.4229-15.599v15.599h-6.4229c0-2.9095 1.7644-17.417-4.314-14.991-3.8145 1.5217-2.1092 11.679-2.1092 14.991h-7.3409c0-3.0107 1.7488-15.887-3.5606-15.172-4.6127 0.62178-2.8625 11.954-2.8625 15.172zm115.49 140.65c-0.5047-0.16836-2.0979-0.56777-3.5404-0.88755l-2.6228-0.58152 0.59477-18.539c0.32711-10.196 0.24693-21.508-0.17822-25.137-0.74355-6.3472-0.69577-6.6178 1.2546-7.1076 1.1152-0.27988 2.6841-0.76082 3.4867-1.0688 1.3039-0.50035 1.3956 0.62178 0.86184 10.548-0.43689 8.1256-0.31302 11.108 0.46131 11.108 0.58225 0 1.0586-0.65115 1.0586-1.4469 0-2.5955 5.1051-6.8114 8.2478-6.8114 4.3109 0 6.3961 1.5301 8.5488 6.2721 2.4632 5.4269 2.592 17.07 0.25032 22.631-3.4321 8.1513-11.877 13.202-18.424 11.019zm10.172-5.4807c4.149-2.7186 5.7466-18.431 2.5411-24.993-1.3399-2.7429-2.2945-3.5429-4.484-3.7574-4.767-0.46712-6.8914 2.8352-7.9564 12.366-1.0133 9.0729-0.45363 16.736 1.3083 17.913 1.481 0.98906 5.9661 0.19091 8.591-1.5288zm-117.88 0.7066c-1.8883-3.7766-1.394-6.5243-0.15968-11.108 1.6742-6.2177 6.8883-9.3593 15.534-9.3593h4.0267l-0.50923-3.7966c-0.28008-2.0882-1.1596-4.4469-1.9544-5.2418-1.8146-1.8146-7.6847-1.6732-11.454 0.27594-2.6304 1.3603-2.8228 1.3338-3.8176-0.52477-1.2429-2.3224-0.44211-3.0404 5.0996-4.5722 4.8229-1.3331 11.951-0.59052 14.243 1.484 2.8979 2.6227 3.6171 7.256 3.5247 22.71l-0.0863 14.44h-2.6434c-2.4006 0-2.6434-0.28997-2.6434-3.1574 0-1.7365-0.41291-3.4126-0.91763-3.7245-0.50466-0.31187-0.9176-0.0223-0.9176 0.64341 0 0.66581-1.049 2.3418-2.3311 3.7245-1.8556 2.0013-3.1491 2.514-6.3417 2.514-3.3078 0-7.1302-1.2651-8.6515-4.3074zm16.004-3.4837c1.866-2.4465 2.4732-4.3431 2.57-8.0292 0.12551-4.7725 0.095-4.8288-2.7622-5.1063-8.7803-0.85274-14.459 7.529-9.432 13.921 2.8094 3.5715 6.5323 3.2677 9.6237-0.78545zm15.825-11.249c-0.15507-10.471-0.28188-19.084-0.28188-19.137 0-0.0532 1.342-0.35304 2.9822-0.66526l2.9821-0.56767v4.565c0 2.5107 0.41292 4.565 0.9176 4.565s0.91761-0.67387 0.91761-1.4974c0-1.9538 6.0872-7.6786 8.1647-7.6786 1.2679 0 1.525 0.58604 1.2069 2.7527-0.31162 2.1233-0.87613 2.7528-2.4686 2.7528-2.5046 0-6.6917 3.9917-7.6096 7.2547-0.36828 1.3088-0.66959 7.8502-0.66959 14.536v12.157l-5.8594 2e-3zm20.822 1.8356c0-9.4631-0.33749-18.134-0.75001-19.269-0.62855-1.7302-0.43303-2.0646 1.2073-2.0646 1.0765 0 2.7561-0.42742 3.7322-0.94991 1.6209-0.86741 1.7749-0.62286 1.7749 2.8181v3.768l3.0906-3.2769c2.5321-2.6848 3.7466-3.2769 6.7222-3.2769 3.6404 0 7.6218 2.7869 7.6218 5.3352 0 1.6218 0.43336 1.3886 3.9456-2.1236 2.626-2.626 3.8976-3.2115 6.9738-3.2115 2.5387 0 4.3589 0.59679 5.5972 1.8351 1.6706 1.6706 1.8351 3.0586 1.8351 15.471 0 7.4996 0.26257 15.551 0.58351 17.893l0.58353 4.2572h-6.6727v-15.992c0-13.315-0.24141-16.234-1.4419-17.434-1.9467-1.9467-5.2323-1.8167-7.8618 0.31102-2.1237 1.7184-2.1662 2.0609-2.1662 17.432v15.68l-6.426 3e-3 2e-3 -15.5c1e-3 -13.955-0.17279-15.692-1.7465-17.434-2.3459-2.5957-5.2577-2.438-7.9558 0.43105-2.1392 2.2745-2.2357 2.9434-2.5157 17.434l-0.29153 15.069-5.8408 6e-4zm82.881 0.30382c0.191-10.716-0.0541-17.566-0.66972-18.717-0.82246-1.5368-0.63594-1.8983 1.2193-2.364 1.2046-0.30236 2.7448-0.76248 3.4225-1.0226 1.0077-0.38669 1.2322 3.1235 1.2322 19.266v19.738l-5.5055 2e-3zm14.811 14.577c-1.7094-1.8194-2.2525-3.5614-2.5037-8.0292-0.54565-9.7043 4.215-14.423 14.551-14.423h4.7382l-0.50926-3.7966c-0.28005-2.0882-1.121-4.4084-1.8688-5.1561-1.7466-1.7467-7.9351-1.6737-11.432 0.13455-2.573 1.3306-2.7362 1.2959-3.6827-0.78154-0.91377-2.0055-0.70904-2.2864 2.6434-3.6278 1.9987-0.79967 5.8901-1.454 8.6478-1.454 4.2417 0 5.475 0.41197 8.0102 2.6755l2.9967 2.6755 0.57231 34.105h-2.8094c-2.689 0-2.8108-0.16727-2.8386-3.8998-0.0274-3.6777-0.1081-3.7952-1.4133-2.0646-4.0451 5.3633-4.9463 5.9643-8.944 5.9643-3.0674 0-4.4738-0.53067-6.1579-2.3236zm13.196-5.0214c2.3332-2.7729 4.0332-9.7349 3.0212-12.372-0.63441-1.6533-4.6117-1.8095-8.8103-0.34588-2.0256 0.70616-3.4 2.0268-4.266 4.0997-1.6716 4.0006-1.6165 4.8438 0.54742 8.3931 2.4465 4.0125 6.2452 4.1023 9.5083 0.22503zm15.736-11.457v-18.8l2.6603-0.92693c1.4632-0.50983 2.8052-0.92696 2.9822-0.92696 0.17698 0 0.32187 1.5258 0.32187 3.3908v3.3908l3.1059-3.3908c2.7107-2.9595 3.6381-3.3908 7.2896-3.3908 3.0984 0 4.8507 0.57382 6.7552 2.2122l2.5719 2.2122 0.66196 35.032h-6.2312l0.34952-14.452c0.21707-8.9794-0.0238-15.413-0.63719-16.992-1.9642-5.0566-8.4585-5.0929-11.753-0.0657-1.4169 2.162-1.6537 4.5983-1.6537 17.016v14.492l-6.423-3.2e-4zm-44.044-27.078c-0.94906-2.9902 0.32893-5.5055 2.7971-5.5055 1.6001 0 2.3753 0.63983 2.7934 2.3059 1.0568 4.2109-4.297 7.2749-5.5905 3.1996z" style="fill:#282828;paint-order:stroke fill markers;stroke-linecap:square;stroke-linejoin:round;stroke-width:4.4626;stroke:#f00"/>
								</g>
								<g transform="matrix(1.4382,0,0,1.4382,337.99,8.7172)" style="stroke-width:.8182">
												<ellipse transform="matrix(.8148 0 0 .81482 -234.86 -6.8276)" cx="176.73" cy="186.37" rx="46.769" ry="44.791" style="paint-order:markers stroke fill;stroke-linejoin:round;stroke-width:3.0125;stroke:#000"/>
												<path d="m-68.611 88.927c-4.3406 1.9788-7.4276 7.1339-11.605 9.9341-7.0396-0.98367-14.263-1.1604-21.226 0.56581-4.732-1.9579-7.9066-7.3393-12.44-9.4706-3.9269 2.5484-10.884 4.2796-11.939 8.9151 0.14122 5.0244 4.812 10.855 1.62 15.368-4.3652 4.9498-6.7489 11.199-9.0758 17.244-4.552 1.9777-9.3824 3.3597-14.064 5.0508-0.3709 4.9609-0.31815 9.9909 0.40971 14.917 4.7098 1.577 9.6806 2.5556 14.258 4.42 2.6855 6.169 5.642 12.399 10.416 17.287 2.2414 4.5331-1.2957 10.221-1.4748 15.168 2.0723 4.2312 8.4152 5.8642 12.682 8.0956 4.1687-3.0668 7.2755-7.9964 11.849-10.221 6.7429 1.2621 13.714 1.0507 20.388-0.52395 4.6236 2.1378 7.9871 6.6591 12.223 9.5824 4.3437-2.1049 9.8131-4.5549 12.491-8.2154-0.30773-5.152-4.5744-10.96-2.2168-15.726 4.8144-5.0599 6.8763-11.966 9.8769-17.944 4.2815-2.1317 10.37-2.6606 13.701-5.5239 0.41352-4.7348 0.2037-9.5074-0.40211-14.215-4.7386-1.4052-9.5201-2.6781-14.206-4.2523-2.7071-5.9156-5.3909-12.063-10.011-16.821-2.6651-1.6761-1.062-4.3978-0.79108-6.7471 0.19871-3.499 2.6961-7.6814 1.0983-10.645-3.5913-2.4904-7.4796-4.6785-11.561-6.2428zm-2.2406 27.763c2.1251 0.23358 4.2139 1.0506 6.3791 2.4553l2.1358 1.3862-6.2151 3.2996-6.2147 3.2964 0.0845 2.8506c0.0721 2.4342 0.41636 3.0953 2.3664 4.54l2.282 1.6894 6.2001-3.241 6.1974-3.2446 0.06951 2.1765c0.15823 4.925-3.0815 10.333-7.8014 13.024-4.4939 2.5626-11.177 2.4101-15.196-0.34547-1.2349-0.8469-2.9911-0.0804-19.124 8.3525-19.105 9.9867-20.399 10.385-23.403 7.182-1.6106-1.7172-1.9464-4.9284-0.73988-7.0499 0.63073-1.1089 6.3978-4.4944 18.561-10.897 17.358-9.1366 17.645-9.3223 17.693-11.336 0.12659-5.3317 2.8166-9.3534 8.1208-12.148 3.0807-1.6231 5.8721-2.291 8.6045-1.9909z" style="fill:#f00;paint-order:markers stroke fill;stroke-linejoin:round;stroke-width:2.4546;stroke:#000"/>
								</g>
				</g>
</svg>
