<!-- Created with Inkscape (http://www.inkscape.org/) -->
<svg class="xx-large-icon green-blue" version="1.1" viewBox="0 0 1500 1500" xmlns="http://www.w3.org/2000/svg">
	<g transform="matrix(7.1562 0 0 7.1562 -2173.5 -1909.3)" style="stroke-width:.13974">
		<path d="m373.24 306.32 66.725 1.7795 17.437 23.017 1.0308 6.0249-26.664 28.976-23.823 11-22.437-11.054-26.369-26.381 0.14689-7.444z" style="fill:#d3d3d3;opacity:.99;paint-order:markers stroke fill;stroke-width:.13974;stroke:#f5f5f5"/>
		<path d="m397.88 362.42-8.6286-11.951 18.627-10.975 0.13397 18.379 9e-3 18.75zm-26.469 87.453 0.6571-4.25 2.0965-6.5h29.807l1.0219 4.5 0.98365 4.5 0.98364 4.5 0.0244 0.75 0.0245 0.75c-3.3724 3.3019-6.6458 6.7262-18.128 0h-18.128zm40.382-3.25 1.4924-7.5h30.405l2.4606 11.5 0.49621 1.75 0.49622 1.75h-36.843zm-13.913-84.203-8.6286-11.951 9.1286-5.4876 9.4975-5.4876 0.13509 18.379 9e-3 18.75z" style="fill:#ee7122;stroke-width:.13974;stroke:#000"/>
		<path d="m375.01 458.61-4.4164-4.5 36.916 0.0412-10 8.882-18.084 0.0768zm40.204 0.0156-4.9128-4.5156 17.667 0.0205 18.458-0.0206-8.8328 9-18.084-0.0768zm-29.986-24.977 3.2817-4.461h1l6.5634 8.922h-14.127zm36.711 4.461 6.6614-9.2249 6.527 9.2249h-6.5942zm-13.924-79.823-0.13708-18.806 5.8811 3.7588 5.75 3.2766 5.4874 3.0936 0.012 2.4676-10.5 14.958-6.4818 9.5838z" style="fill:#eb1b21;stroke-width:.13974;stroke:#000"/>
		<path d="m393.12 321.96-2.3066 0.32617-2.3047 0.32617-0.34375 2.4453-0.34571 2.4434 1.7871 1.3066 1.7852 1.3047h1.4746l1.5723-1.5703 1.5703-1.5723v-2.6113l-1.4453-1.1992zm31.779 0-2.8906 2.3984v2.6113l3.1426 3.1426h2.6133l1.1992-1.4453 1.1992-1.4434-0.32617-2.3066-0.32812-2.3047-2.3047-0.32617z" style="stroke-width:.13974;stroke:#f5f5f5"/>
		<path d="m358.68 336.94 2e-3 0.0104 26.826 29.109-12.499 72.046h8.6608l6.4632-9.0001h1.5368l6.4632 9.0001h8.5912l3.2839 16.372-4.0426 4.303 2.2718 1.0947 2.2705 1.0947 1 0.0718 3.8387-2.9045-3.6788-4.0653 1.42-7.7334 1.4536-8.4043 8.4905 0.0548 7.5967-10.187 7.4149 10.232 3.631 0.0317 4.1649 0.039-12.073-71.993 26.665-28.976 1.3409 1.4757 0.0224 0.0892-0.0221-0.0963-1.3406-1.476-26.665 28.976h-15.696l-7.5761 11.022-1.1546-0.0217-7.5759-11-14.256-0.0535zm-8.9228 35.659-3e-3 6e-3 -0.0227 0.0287 0.0218-0.0202zm118.87 1.5805 3e-3 0.012 1e-3 -4e-3zm-95.632 63.916 0.0109 2.8177v-2.8062l-1e-3 6e-3z" style="fill:#a9a9a9;stroke-width:.13974;stroke:#f5f5f5"/>
		<path d="m333.47 408.45-1.6367-3.8326 7.5427-23.372 4.4272-3.1206 5.9535-5.507 8.9257-35.665 26.828 29.111-12.5 72.054-23.1-41.794-2.8188 3.2939-0.0812 3.2591-9.5 7.5987-2.4041 1.8075zm142.29-1.0315-5.75-4.6096v-4.0821l-2.6347-2.75-23.532 42.14-12.074-72 26.665-28.976 1.3408 1.4759 8.8607 35.582 4.8578 3.9064 4.3437 2.9885 7.3898 22.177-2.4767 8.8458-1.2401-0.0892zm-112.02-92.49 4.45-17.311 1.3218-1.3231 38.352-16.177 1.6477-0.014 39 16.392 0.31202 0.1216 9.0269 34.5h-0.59428l-17.288-23.017-7.4564 1.1349-23.734 3.5339-27.266-4.6291-4.2909-0.023-16.58 22.5-1.3507 1.6219z" style="fill:#221e1f;stroke-width:.13974;stroke:#f5f5f5"/>
	</g>
</svg>
