<svg version="1.1" viewBox="0 0 24 24" xmlns="http://www.w3.org/2000/svg">
	<path d="m12.099 2.0342c-0.26941 8.915e-4 -0.53726 0.041372-0.99805 0.12305-2.3225 0.41166-3.9876 1.7713-4.6875 3.8262-0.18094 0.53122-0.23176 0.92741-0.23047 1.8008 0.00214 1.4561 0.27595 2.3199 1.3711 4.3203 1.4741 2.6926 1.7428 3.3185 1.7441 4.0605 3.27e-4 0.18089 0.019628 0.40039 0.019628 0.40039l1.9582 0.32763 0.04756-0.55028c-0.0067-1.0626-0.57099-2.5212-1.8886-4.8789-1.0362-1.8541-1.257-2.5121-1.252-3.7344 0.00316-0.76232 0.054727-1.0687 0.24609-1.4922 0.3285-0.72699 1.0874-1.4689 1.873-1.832 1.0231-0.47285 2.7726-0.4069 3.6074-0.015625 0.81398 0.38151 1.6006 1.1344 1.9062 1.8242 0.19601 0.44241 0.24791 0.75194 0.25195 1.5156 0.0065 1.222-0.21282 1.8784-1.25 3.7344-1.3194 2.3609-1.8821 3.8181-1.8887 4.8848l-0.05111 0.81246 1.9454 0.3255 0.15252-1.513c0.09428-0.75711 0.35511-1.3832 1.2637-3.0176 1.5928-2.8653 1.8263-3.5211 1.8301-5.1719 2e-3 -0.87515-0.04917-1.2685-0.23047-1.8008-0.69474-2.0399-2.4229-3.4381-4.7382-3.832-0.46214-0.078621-0.73254-0.11808-1.002-0.11719z" style="fill:#ffd700"/>
	<path d="m9.3178 16.565 0.1895 1.2545 5.2108 0.79484 0.10528-1.1281zm0.73199 3.9552 0.56879 0.89834c0.32405 0.227 0.65465 0.44121 0.73633 0.47656 0.08168 0.03534 0.48582 0.05091 0.89648 0.03516 0.68461-0.02625 0.79838-0.06547 1.377-0.47656l0.63086-0.44922s-4.1661-0.45254-4.2094-0.48428zm-0.48863-1.9978 0.1895 1.2124 4.7265 0.47901 0.23161-1.0229z" style="fill:#000000"/>
</svg>

